<svg xmlns="http://www.w3.org/2000/svg" viewBox="0 0 500 500"><g id="freepik--background-simple--inject-64"><path d="M474.73,238.37c-4.93,41.8-24,90.4-62.14,112.73C355,384.84,359.82,436.74,247.4,459.3A231.3,231.3,0,0,1,197.55,464a192.77,192.77,0,0,1-24.46-2c-71.45-10.44-119.53-60.1-137.17-120C12.7,263.12,59.06,211.5,89.78,180.4s53.23-128,163.57-151a223.75,223.75,0,0,1,51.23-4.87c39.26,1,82.08,13.85,111.71,40.76q3.33,3,6.49,6.28C464,113.79,481.47,181.38,474.73,238.37Z" style="fill:#4B0082"></path><path d="M474.73,238.37c-4.93,41.8-24,90.4-62.14,112.73C355,384.84,359.82,436.74,247.4,459.3A231.3,231.3,0,0,1,197.55,464a192.77,192.77,0,0,1-24.46-2c-71.45-10.44-119.53-60.1-137.17-120C12.7,263.12,59.06,211.5,89.78,180.4s53.23-128,163.57-151a223.75,223.75,0,0,1,51.23-4.87c39.26,1,82.08,13.85,111.71,40.76q3.33,3,6.49,6.28C464,113.79,481.47,181.38,474.73,238.37Z" style="fill:#fff;opacity:0.7000000000000001"></path></g><g id="freepik--Gears--inject-64"><path d="M351.1,156.62c0-1-.05-2-.08-3.05l8.78-.92-1.24-11.84-8.77.92c-.36-2-.76-4-1.25-6l8.37-2.72-3.68-11.33-8.38,2.72q-1.14-2.84-2.47-5.57l7.62-4.4-6-10.31-7.62,4.4c-1.13-1.69-2.35-3.32-3.6-4.91l6.56-5.91-8-8.85-6.56,5.91c-1.46-1.41-3-2.78-4.52-4.08l5.19-7.14-9.64-7-5.18,7.13c-1.72-1.07-3.47-2.1-5.27-3l3.58-8-10.88-4.84-3.57,8c-1.9-.7-3.85-1.3-5.81-1.86l1.84-8.62-11.65-2.48-1.84,8.63q-3-.42-6.05-.63V62H259.14v8.83q-3.06.21-6.06.63l-1.83-8.63L239.6,65.32l1.83,8.62c-2,.56-3.9,1.16-5.8,1.86l-3.58-8-10.88,4.84,3.58,8c-1.79,1-3.55,2-5.27,3l-5.18-7.13-9.63,7,5.18,7.14c-1.56,1.3-3.06,2.67-4.52,4.08l-6.56-5.91-8,8.85,6.56,5.91c-1.25,1.59-2.46,3.22-3.6,4.91l-7.62-4.4-6,10.31,7.62,4.4c-.89,1.82-1.7,3.68-2.47,5.57L177,121.72l-3.68,11.33,8.37,2.72c-.49,2-.9,3.95-1.25,6l-8.77-.92-1.25,11.84,8.78.92c0,1-.07,2-.07,3.05s0,2,.07,3l-8.78.93,1.25,11.84,8.77-.92c.35,2,.76,4,1.25,6l-8.37,2.72L177,191.51l8.37-2.72c.77,1.89,1.58,3.75,2.47,5.57l-7.62,4.4,6,10.32,7.62-4.4c1.14,1.68,2.35,3.31,3.6,4.91l-6.56,5.91,8,8.85,6.56-5.91c1.46,1.41,3,2.77,4.52,4.08l-5.18,7.13,9.63,7,5.18-7.13q2.58,1.62,5.27,3.06l-3.58,8,10.88,4.85,3.58-8c1.9.69,3.84,1.3,5.8,1.86l-1.83,8.62,11.65,2.47,1.83-8.62c2,.28,4,.48,6.06.62v8.83h11.91v-8.83c2-.14,4.06-.34,6.05-.62l1.84,8.62,11.65-2.47-1.84-8.62c2-.56,3.91-1.17,5.81-1.86l3.57,8L309,240.62l-3.58-8c1.8-1,3.55-2,5.27-3.06l5.18,7.13,9.64-7-5.19-7.13c1.56-1.31,3.06-2.67,4.52-4.08l6.56,5.91,8-8.85-6.56-5.91c1.25-1.6,2.47-3.23,3.6-4.91l7.62,4.4,6-10.32-7.62-4.4q1.33-2.73,2.47-5.57l8.38,2.72,3.68-11.32-8.37-2.72c.49-2,.89-3.95,1.25-6l8.77.92,1.24-11.84-8.78-.93C351.05,158.65,351.1,157.64,351.1,156.62Zm-86,72.25a72.26,72.26,0,1,1,72.26-72.25A72.25,72.25,0,0,1,265.09,228.87Z" style="opacity:0.30000000000000004"></path><path d="M433.67,240.9c0-.47,0-.93,0-1.4l4.06-.43-.58-5.47-4.05.43q-.24-1.4-.57-2.76l3.86-1.25-1.7-5.23L430.78,226c-.35-.87-.73-1.73-1.14-2.57l3.52-2-2.75-4.77-3.52,2c-.52-.78-1.08-1.54-1.66-2.27l3-2.73-3.68-4.09-3,2.73c-.68-.65-1.37-1.28-2.09-1.89l2.39-3.29-4.45-3.24-2.39,3.3c-.79-.5-1.61-1-2.44-1.41l1.66-3.72-5-2.24-1.65,3.71c-.88-.32-1.77-.6-2.68-.86l.85-4-5.38-1.14-.85,4c-.92-.13-1.86-.22-2.8-.29V197.2h-5.5v4.08c-.94.07-1.87.16-2.8.29l-.84-4-5.38,1.14.84,4c-.9.26-1.8.54-2.68.86l-1.65-3.71-5,2.24,1.66,3.72c-.83.44-1.64.91-2.44,1.41l-2.39-3.3L366,207.17l2.39,3.29c-.71.61-1.41,1.24-2.08,1.89l-3-2.73-3.68,4.09,3,2.73c-.58.73-1.14,1.49-1.67,2.27l-3.52-2-2.75,4.77,3.52,2c-.41.84-.79,1.7-1.14,2.57l-3.87-1.25-1.7,5.23,3.87,1.25c-.23.91-.42,1.83-.58,2.76l-4.05-.43-.58,5.47,4.06.43c0,.47,0,.93,0,1.4s0,.94,0,1.41l-4.06.43.58,5.47,4.05-.43c.16.93.35,1.85.58,2.76l-3.87,1.25,1.7,5.23,3.87-1.25c.35.87.73,1.73,1.14,2.57l-3.52,2,2.75,4.77,3.52-2c.53.78,1.09,1.54,1.67,2.27l-3,2.73,3.68,4.09,3-2.73c.67.65,1.37,1.28,2.08,1.89L366,274.64l4.45,3.24,2.39-3.3c.8.5,1.61,1,2.44,1.41l-1.66,3.72,5,2.24,1.65-3.71c.88.32,1.78.6,2.68.86l-.84,4,5.38,1.14.84-4c.93.13,1.86.22,2.8.29v4.08h5.5v-4.08c.94-.07,1.88-.16,2.8-.29l.85,4,5.38-1.14-.85-4c.91-.26,1.8-.54,2.68-.86L409.2,282l5-2.24L412.57,276c.83-.44,1.65-.91,2.44-1.41l2.39,3.3,4.45-3.24-2.39-3.29c.72-.61,1.41-1.24,2.09-1.89l3,2.73,3.68-4.09-3-2.73c.58-.73,1.14-1.49,1.66-2.27l3.52,2,2.75-4.77-3.52-2c.41-.84.79-1.7,1.14-2.57l3.87,1.25,1.7-5.23-3.86-1.25q.33-1.36.57-2.76l4.05.43.58-5.47-4.06-.43C433.65,241.84,433.67,241.38,433.67,240.9Zm-39.73,33.38a33.38,33.38,0,1,1,33.38-33.38A33.38,33.38,0,0,1,393.94,274.28Z" style="opacity:0.30000000000000004"></path><path d="M156.46,149c0-.4,0-.81,0-1.21l3.5-.37-.5-4.72-3.5.37c-.14-.8-.3-1.6-.49-2.38l3.33-1.08L157.31,135,154,136.13c-.31-.75-.63-1.5-1-2.22l3-1.76L153.65,128l-3,1.76c-.46-.67-.94-1.32-1.44-2l2.62-2.36L148.61,122,146,124.31c-.59-.56-1.19-1.11-1.81-1.63l2.07-2.84-3.84-2.79-2.07,2.84c-.68-.43-1.38-.83-2.1-1.21l1.43-3.21-4.34-1.93-1.42,3.2c-.76-.28-1.53-.52-2.31-.74l.73-3.44-4.65-1L127,115c-.79-.11-1.6-.19-2.41-.25v-3.52H119.8v3.52c-.81.06-1.62.14-2.41.25l-.74-3.44-4.64,1,.73,3.44c-.78.22-1.55.46-2.31.74l-1.43-3.2-4.33,1.93,1.42,3.21c-.71.38-1.41.78-2.1,1.21l-2.06-2.84-3.84,2.79,2.06,2.84c-.62.52-1.22,1.07-1.8,1.63L95.74,122l-3.18,3.52,2.62,2.36c-.5.64-1,1.29-1.44,2l-3-1.76-2.37,4.11,3,1.76c-.35.72-.68,1.47-1,2.22L87,135l-1.47,4.52,3.34,1.08c-.19.78-.36,1.58-.5,2.38l-3.49-.37-.5,4.72,3.5.37c0,.4,0,.81,0,1.21s0,.81,0,1.22l-3.5.37.5,4.72,3.49-.37c.14.8.31,1.6.5,2.38l-3.34,1.08L87,162.87l3.34-1.09c.3.75.63,1.5,1,2.22l-3,1.76,2.37,4.11,3-1.76c.45.67.94,1.32,1.44,2l-2.62,2.36L95.74,176l2.61-2.35c.58.56,1.18,1.1,1.8,1.63l-2.06,2.84,3.84,2.79L104,178c.69.43,1.39.83,2.1,1.21l-1.42,3.21,4.33,1.93,1.43-3.2c.76.28,1.53.52,2.31.74l-.73,3.44,4.64,1,.74-3.44c.79.11,1.6.19,2.41.25v3.52h4.75v-3.52c.81-.06,1.62-.14,2.41-.25l.73,3.44,4.65-1-.73-3.44c.78-.22,1.55-.46,2.31-.74l1.42,3.2,4.34-1.93-1.43-3.21c.72-.38,1.42-.78,2.1-1.21l2.07,2.84,3.84-2.79-2.07-2.84c.62-.53,1.22-1.07,1.81-1.63l2.61,2.35,3.18-3.52-2.62-2.36c.5-.64,1-1.29,1.44-2l3,1.76,2.37-4.11L153,164c.36-.72.68-1.47,1-2.22l3.34,1.09,1.46-4.52-3.33-1.08c.19-.78.35-1.58.49-2.38l3.5.37.5-4.72-3.5-.37C156.44,149.76,156.46,149.36,156.46,149Zm-34.29,28.81A28.81,28.81,0,1,1,151,149,28.81,28.81,0,0,1,122.17,177.76Z" style="opacity:0.30000000000000004"></path></g><g id="freepik--Clock--inject-64"><path d="M406.72,89.68a39.08,39.08,0,1,0,39.08,39.08A39.08,39.08,0,0,0,406.72,89.68Zm0,70.72a31.64,31.64,0,1,1,31.64-31.64A31.63,31.63,0,0,1,406.72,160.4Z" style="opacity:0.30000000000000004"></path><path d="M417.3,123.25l2.12-5.16-5.45,1.2s-4.31-.38-4.94,1.07a8.6,8.6,0,0,0-.47,3.47l-25.2,24.55,28.53-20.58a8.68,8.68,0,0,0,3.5.13C416.93,127.57,417.3,123.25,417.3,123.25Z" style="opacity:0.30000000000000004"></path></g><g id="freepik--time-machine--inject-64"><path d="M289.29,139H239a2.72,2.72,0,0,1-2.71-2.71h0A2.72,2.72,0,0,1,239,133.6h50.31a2.72,2.72,0,0,1,2.72,2.72h0A2.72,2.72,0,0,1,289.29,139Z"></path><path d="M289.29,132.5H239a2.72,2.72,0,0,1-2.71-2.72h0a2.72,2.72,0,0,1,2.71-2.71h50.31a2.72,2.72,0,0,1,2.72,2.71h0A2.72,2.72,0,0,1,289.29,132.5Z"></path><path d="M289.29,126H239a2.71,2.71,0,0,1-2.71-2.71h0a2.71,2.71,0,0,1,2.71-2.71h50.31a2.71,2.71,0,0,1,2.72,2.71h0A2.71,2.71,0,0,1,289.29,126Z"></path><path d="M289.29,119.43H239a2.71,2.71,0,0,1-2.71-2.71h0A2.71,2.71,0,0,1,239,114h50.31a2.71,2.71,0,0,1,2.72,2.71h0A2.71,2.71,0,0,1,289.29,119.43Z"></path><path d="M289.29,112.9H239a2.71,2.71,0,0,1-2.71-2.71h0a2.71,2.71,0,0,1,2.71-2.71h50.31a2.71,2.71,0,0,1,2.72,2.71h0A2.71,2.71,0,0,1,289.29,112.9Z"></path><path d="M278.69,106.42a15,15,0,0,0-29.1,0Z"></path><path d="M245,197.3H194.69a2.71,2.71,0,0,1-2.71-2.71h0a2.71,2.71,0,0,1,2.71-2.72H245a2.71,2.71,0,0,1,2.71,2.72h0A2.71,2.71,0,0,1,245,197.3Z"></path><path d="M245,190.77H194.69a2.71,2.71,0,0,1-2.71-2.72h0a2.71,2.71,0,0,1,2.71-2.71H245a2.71,2.71,0,0,1,2.71,2.71h0A2.71,2.71,0,0,1,245,190.77Z"></path><path d="M245,184.23H194.69a2.71,2.71,0,0,1-2.71-2.71h0a2.71,2.71,0,0,1,2.71-2.71H245a2.71,2.71,0,0,1,2.71,2.71h0A2.71,2.71,0,0,1,245,184.23Z"></path><path d="M245,177.7H194.69A2.71,2.71,0,0,1,192,175h0a2.71,2.71,0,0,1,2.71-2.71H245a2.71,2.71,0,0,1,2.71,2.71h0A2.71,2.71,0,0,1,245,177.7Z"></path><path d="M245,171.17H194.69a2.71,2.71,0,0,1-2.71-2.71h0a2.71,2.71,0,0,1,2.71-2.71H245a2.71,2.71,0,0,1,2.71,2.71h0A2.71,2.71,0,0,1,245,171.17Z"></path><path d="M234.4,164.69a15,15,0,0,0-29.11,0Z"></path><path d="M332.79,197.3H282.48a2.71,2.71,0,0,1-2.71-2.71h0a2.71,2.71,0,0,1,2.71-2.72h50.31a2.71,2.71,0,0,1,2.71,2.72h0A2.71,2.71,0,0,1,332.79,197.3Z"></path><path d="M332.79,190.77H282.48a2.71,2.71,0,0,1-2.71-2.72h0a2.71,2.71,0,0,1,2.71-2.71h50.31a2.71,2.71,0,0,1,2.71,2.71h0A2.71,2.71,0,0,1,332.79,190.77Z"></path><path d="M332.79,184.23H282.48a2.71,2.71,0,0,1-2.71-2.71h0a2.71,2.71,0,0,1,2.71-2.71h50.31a2.71,2.71,0,0,1,2.71,2.71h0A2.71,2.71,0,0,1,332.79,184.23Z"></path><path d="M332.79,177.7H282.48a2.71,2.71,0,0,1-2.71-2.71h0a2.71,2.71,0,0,1,2.71-2.71h50.31A2.71,2.71,0,0,1,335.5,175h0A2.71,2.71,0,0,1,332.79,177.7Z"></path><path d="M332.79,171.17H282.48a2.71,2.71,0,0,1-2.71-2.71h0a2.71,2.71,0,0,1,2.71-2.71h50.31a2.71,2.71,0,0,1,2.71,2.71h0A2.71,2.71,0,0,1,332.79,171.17Z"></path><path d="M322.19,164.69a15,15,0,0,0-29.11,0Z"></path><path d="M423,384.8V336.19A157.94,157.94,0,0,0,265.06,178.26h0A157.94,157.94,0,0,0,107.12,336.19V384.8Z" style="fill:#e8e8e8;stroke:#263238;stroke-miterlimit:10"></path><polyline points="398.01 251.15 355.84 251.15 355.84 365.88" style="fill:none;stroke:#263238;stroke-miterlimit:10"></polyline><line x1="356.29" y1="304.66" x2="107.12" y2="304.66" style="fill:none;stroke:#263238;stroke-miterlimit:10"></line><line x1="147.24" y1="305.12" x2="147.24" y2="365.88" style="fill:none;stroke:#263238;stroke-miterlimit:10"></line><line x1="368.99" y1="250.69" x2="368.99" y2="217.14" style="fill:none;stroke:#263238;stroke-miterlimit:10"></line><circle cx="264.14" cy="174.27" r="39.08" style="fill:#263238;stroke:#263238;stroke-miterlimit:10"></circle><circle cx="264.14" cy="174.27" r="31.64" style="fill:#fff"></circle><path d="M274.72,168.76l2.12-5.16-5.45,1.2s-4.31-.38-4.94,1.07a8.6,8.6,0,0,0-.47,3.47l-25.2,24.56,28.53-20.59a8.77,8.77,0,0,0,3.5.14C274.35,173.08,274.72,168.76,274.72,168.76Z" style="fill:#4B0082;stroke:#263238;stroke-miterlimit:10"></path><circle cx="309.49" cy="200.27" r="28.13" style="fill:#263238;stroke:#263238;stroke-miterlimit:10"></circle><circle cx="309.49" cy="200.27" r="22.78" style="fill:#fff"></circle><path d="M300.9,200.21l-3.09,2.58,3.87,1.07s2.62,1.69,3.51,1a6.2,6.2,0,0,0,1.47-2.05l24.3-7.14-25.09,3.49a6.21,6.21,0,0,0-2.18-1.26C302.59,197.6,300.9,200.21,300.9,200.21Z" style="fill:#4B0082;stroke:#263238;stroke-miterlimit:10"></path><circle cx="217.13" cy="209.37" r="20.33" style="fill:#263238;stroke:#263238;stroke-miterlimit:10"></circle><circle cx="217.13" cy="209.37" r="16.46" style="fill:#fff"></circle><path d="M220.77,214.4l2.82.7-1-2.72s-.14-2.24-.93-2.46a4.47,4.47,0,0,0-1.82,0l-14.56-11.1L218,212a4.62,4.62,0,0,0,.19,1.82C218.52,214.54,220.77,214.4,220.77,214.4Z" style="fill:#4B0082;stroke:#263238;stroke-miterlimit:10"></path><rect x="94.63" y="366.76" width="123.82" height="13.41" style="fill:#4B0082;stroke:#263238;stroke-miterlimit:10"></rect><rect x="312.47" y="366.76" width="123.82" height="13.41" style="fill:#4B0082;stroke:#263238;stroke-miterlimit:10"></rect><line x1="386.26" y1="311.65" x2="386.26" y2="287.44" style="fill:none;stroke:#263238;stroke-miterlimit:10;stroke-width:5px"></line><path d="M387.92,300.12H419a5.88,5.88,0,0,1,5.89,5.89v72.54" style="fill:none;stroke:#263238;stroke-miterlimit:10;stroke-width:5px"></path><circle cx="386.26" cy="287.44" r="8.19" transform="translate(-90.12 357.32) rotate(-45)" style="fill:#4B0082;stroke:#263238;stroke-miterlimit:10"></circle><path d="M391.09,287.44a4.83,4.83,0,1,0-4.83,4.82A4.83,4.83,0,0,0,391.09,287.44Z" style="fill:#fff"></path><path d="M386.26,305.73h0a18.56,18.56,0,0,1,18.56,18.56v54.08a0,0,0,0,1,0,0H367.7a0,0,0,0,1,0,0V324.3A18.56,18.56,0,0,1,386.26,305.73Z" style="fill:#263238;stroke:#263238;stroke-miterlimit:10"></path><path d="M404.83,324.27a18.57,18.57,0,0,0-18.57-18.54h0a18.56,18.56,0,0,0-18.56,18.54Z" style="fill:#4B0082;stroke:#263238;stroke-miterlimit:10"></path><polygon points="478.92 419.39 51.38 419.39 87.01 378.67 443.29 378.67 478.92 419.39" style="fill:#e8e8e8;stroke:#263238;stroke-miterlimit:10"></polygon><polygon points="337.02 419.39 193.28 419.39 205.25 378.67 325.05 378.67 337.02 419.39" style="fill:#4B0082;stroke:#263238;stroke-miterlimit:10"></polygon><line x1="203.56" y1="385.02" x2="326.04" y2="385.02" style="fill:none;stroke:#263238;stroke-miterlimit:10;stroke-width:0.5px"></line><line x1="200.22" y1="395.62" x2="329.38" y2="395.62" style="fill:none;stroke:#263238;stroke-miterlimit:10;stroke-width:0.5px"></line><line x1="196.55" y1="409.29" x2="333.05" y2="409.29" style="fill:none;stroke:#263238;stroke-miterlimit:10;stroke-width:0.5px"></line><circle cx="111.33" cy="281.8" r="74.38" transform="translate(-44.13 21.73) rotate(-9.31)" style="fill:#263238;stroke:#263238;stroke-miterlimit:10"></circle><path d="M172.16,281.8c0-.72,0-1.43-.06-2.15l6.21-.65-.88-8.38-6.2.65c-.25-1.42-.54-2.83-.88-4.21l5.92-1.93-2.61-8-5.92,1.93c-.54-1.34-1.12-2.65-1.75-3.94l5.39-3.11-4.21-7.3-5.39,3.12c-.8-1.2-1.66-2.35-2.55-3.48l4.64-4.18-5.63-6.25-4.64,4.17c-1-1-2.1-2-3.2-2.88l3.67-5-6.82-5-3.66,5c-1.22-.76-2.46-1.48-3.73-2.16l2.53-5.68L134.7,219l-2.53,5.68c-1.34-.49-2.72-.92-4.1-1.32l1.29-6.09-8.23-1.76-1.3,6.1c-1.41-.19-2.84-.34-4.29-.44V214.9h-8.42v6.24c-1.44.1-2.87.25-4.28.44l-1.3-6.1-8.24,1.76,1.3,6.09c-1.39.4-2.76.83-4.1,1.32L88,219l-7.7,3.43,2.54,5.68c-1.27.68-2.52,1.4-3.73,2.16l-3.67-5-6.81,5,3.67,5c-1.1.92-2.17,1.89-3.2,2.88l-4.64-4.17-5.63,6.25,4.64,4.18c-.89,1.13-1.75,2.28-2.55,3.48L55.5,244.7,51.29,252l5.39,3.11c-.63,1.29-1.21,2.6-1.75,3.94L49,257.12l-2.6,8,5.92,1.93c-.34,1.38-.63,2.79-.88,4.21l-6.21-.65L44.35,279l6.21.65c0,.72-.05,1.43-.05,2.15s0,1.44.05,2.16l-6.21.65.88,8.38,6.21-.66c.25,1.43.54,2.83.88,4.22l-5.92,1.92,2.6,8,5.93-1.92c.54,1.34,1.12,2.65,1.75,3.94l-5.39,3.11,4.21,7.29,5.39-3.11c.8,1.19,1.66,2.35,2.55,3.48l-4.64,4.17,5.63,6.26,4.64-4.18c1,1,2.1,2,3.2,2.89l-3.67,5,6.81,5,3.67-5.05c1.21.76,2.46,1.49,3.73,2.16l-2.54,5.69,7.7,3.43L90.5,339c1.34.49,2.71.92,4.1,1.32l-1.3,6.09,8.24,1.75,1.3-6.1c1.41.2,2.84.35,4.28.45v6.24h8.42v-6.24q2.17-.15,4.29-.45l1.3,6.1,8.23-1.75-1.29-6.09c1.38-.4,2.76-.83,4.1-1.32l2.53,5.68,7.69-3.43-2.53-5.69c1.27-.67,2.51-1.4,3.73-2.16l3.66,5.05,6.82-5-3.67-5c1.1-.92,2.16-1.89,3.2-2.89l4.64,4.18,5.63-6.26-4.64-4.17c.89-1.13,1.75-2.29,2.55-3.48l5.39,3.11,4.21-7.29L166,308.5c.63-1.29,1.21-2.6,1.75-3.94l5.92,1.92,2.61-8-5.92-1.92c.34-1.39.63-2.79.88-4.22l6.2.66.88-8.38L172.1,284C172.13,283.24,172.16,282.53,172.16,281.8Zm-60.83,51.1a51.1,51.1,0,1,1,51.1-51.1A51.1,51.1,0,0,1,111.33,332.9Z" style="fill:#919191;stroke:#263238;stroke-miterlimit:10"></path><path d="M114.23,295.63c0-.27,0-.54,0-.8l2.31-.25-.32-3.11-2.31.24c-.09-.53-.2-1-.33-1.57l2.2-.71-1-3-2.21.71c-.2-.49-.41-1-.65-1.46l2-1.16-1.57-2.71-2,1.15c-.29-.44-.61-.87-.94-1.29l1.72-1.55-2.09-2.33-1.73,1.55c-.38-.37-.78-.73-1.19-1.07l1.36-1.88L105,274.57l-1.36,1.88c-.46-.29-.92-.55-1.39-.81l.94-2.11-2.86-1.28-.94,2.11q-.75-.27-1.53-.48l.48-2.27L95.25,271l-.48,2.27c-.53-.08-1.06-.13-1.6-.17v-2.32H90v2.32c-.54,0-1.07.09-1.59.17L88,271l-3.06.65.48,2.27c-.51.14-1,.3-1.53.48l-.94-2.11-2.86,1.28.94,2.11c-.47.26-.93.52-1.38.81l-1.37-1.88-2.53,1.84,1.36,1.88c-.41.34-.8.7-1.19,1.07l-1.72-1.55-2.1,2.33,1.73,1.55c-.33.42-.65.85-1,1.29l-2-1.15-1.56,2.71,2,1.16c-.23.48-.45,1-.65,1.46l-2.2-.71-1,3,2.2.71c-.13.52-.23,1-.33,1.57l-2.3-.24-.33,3.11,2.31.25c0,.26,0,.53,0,.8s0,.53,0,.8l-2.31.24.33,3.12,2.3-.24c.1.53.2,1.05.33,1.56l-2.2.72,1,3,2.2-.72c.2.5.42,1,.65,1.47l-2,1.16,1.56,2.71,2-1.16c.3.45.62.88,1,1.3l-1.73,1.55,2.1,2.33,1.72-1.56c.39.37.78.73,1.19,1.08l-1.36,1.87,2.53,1.85,1.37-1.88c.45.28.91.55,1.38.8l-.94,2.12L82.91,319l.94-2.11c.5.19,1,.34,1.53.49l-.48,2.27,3.06.65.49-2.27c.52.08,1,.13,1.59.17v2.32h3.13V318.2c.54,0,1.07-.09,1.6-.17l.48,2.27,3.06-.65-.48-2.27c.52-.15,1-.3,1.53-.49l.94,2.11,2.86-1.27-.94-2.12c.47-.25.93-.52,1.39-.8l1.36,1.88,2.53-1.85L106.14,313c.41-.35.81-.71,1.19-1.08l1.73,1.56,2.09-2.33-1.72-1.55c.33-.42.65-.85.94-1.3l2,1.16,1.57-2.71-2-1.16c.24-.48.45-1,.65-1.47l2.21.72,1-3-2.2-.72q.19-.76.33-1.56l2.31.24.32-3.12-2.31-.24C114.22,296.16,114.23,295.9,114.23,295.63Zm-22.62,19a19,19,0,1,1,19-19A19,19,0,0,1,91.61,314.64Z" style="fill:#919191;stroke:#263238;stroke-miterlimit:10"></path><path d="M142.25,288.72c0-.13,0-.27,0-.41l1.19-.12-.17-1.6-1.19.12c0-.27-.1-.54-.16-.8l1.13-.37-.5-1.53-1.13.37c-.11-.26-.22-.51-.34-.75l1-.6-.8-1.39-1,.6c-.15-.23-.32-.45-.49-.67l.89-.8-1.08-1.19-.88.8c-.2-.19-.4-.38-.61-.55l.7-1-1.3-.94-.7,1-.71-.41.48-1.09-1.47-.65-.48,1.08-.79-.25.25-1.16-1.57-.34-.25,1.17c-.27,0-.54-.07-.82-.09V276h-1.6v1.19c-.28,0-.55.05-.82.09l-.25-1.17-1.57.34.25,1.16-.79.25-.48-1.08-1.47.65.48,1.09-.71.41-.7-1-1.3.94.7,1c-.21.17-.41.36-.61.55l-.88-.8-1.08,1.19.89.8c-.17.22-.34.44-.49.67l-1-.6-.8,1.39,1,.6c-.12.24-.23.49-.34.75l-1.13-.37-.5,1.53,1.13.37c-.06.26-.12.53-.16.8l-1.19-.12-.17,1.6,1.19.12c0,.14,0,.28,0,.41s0,.28,0,.41l-1.19.13.17,1.6,1.19-.13c0,.28.1.54.16.81l-1.13.37.5,1.52,1.13-.36c.11.25.22.5.34.75l-1,.59.8,1.4,1-.6c.15.23.32.45.49.67l-.89.79,1.08,1.2.88-.8.61.55-.7,1,1.3.95.7-1,.71.41-.48,1.08,1.47.66.48-1.09c.26.1.52.18.79.26l-.25,1.16,1.57.33.25-1.16a7.34,7.34,0,0,0,.82.08v1.2h1.6v-1.2a7.34,7.34,0,0,0,.82-.08l.25,1.16,1.57-.33-.25-1.16c.27-.08.53-.16.79-.26l.48,1.09,1.47-.66-.48-1.08.71-.41.7,1,1.3-.95-.7-1,.61-.55.88.8,1.08-1.2-.89-.79c.17-.22.34-.44.49-.67l1,.6.8-1.4-1-.59c.12-.25.23-.5.34-.75l1.13.36.5-1.52-1.13-.37c.06-.27.12-.53.16-.81l1.19.13.17-1.6-1.19-.13C142.25,289,142.25,288.86,142.25,288.72Zm-11.61,9.76a9.76,9.76,0,1,1,9.75-9.76A9.75,9.75,0,0,1,130.64,298.48Z" style="fill:#919191;stroke:#263238;stroke-miterlimit:10"></path><rect x="183.71" y="276.95" width="9.54" height="14.16" style="fill:#263238;stroke:#263238;stroke-miterlimit:10"></rect><path d="M175,254h23.76a0,0,0,0,1,0,0v14.16a0,0,0,0,1,0,0H175a7.08,7.08,0,0,1-7.08-7.08v0A7.08,7.08,0,0,1,175,254Z" style="fill:#919191;stroke:#263238;stroke-miterlimit:10"></path><path d="M198.74,314H175a7.08,7.08,0,0,1-7.08-7.08h0a7.08,7.08,0,0,1,7.08-7.08h23.76Z" style="fill:#919191;stroke:#263238;stroke-miterlimit:10"></path><circle cx="265.1" cy="281.8" r="74.38" transform="translate(-59.3 70.95) rotate(-13.73)" style="fill:#919191;stroke:#263238;stroke-miterlimit:10"></circle><path d="M333.11,281.8a68,68,0,1,1-68-68A67.8,67.8,0,0,1,333.11,281.8Z" style="fill:#263238;stroke:#263238;stroke-miterlimit:10"></path><rect x="90.93" y="245.72" width="8.33" height="14.99" style="fill:#4B0082;stroke:#263238;stroke-miterlimit:10"></rect><rect x="101.76" y="245.72" width="8.33" height="14.99" style="fill:#4B0082;stroke:#263238;stroke-miterlimit:10"></rect><rect x="112.58" y="245.72" width="8.33" height="14.99" style="fill:#4B0082;stroke:#263238;stroke-miterlimit:10"></rect><rect x="123.41" y="245.72" width="8.33" height="14.99" style="fill:#4B0082;stroke:#263238;stroke-miterlimit:10"></rect><path d="M310,261a2.48,2.48,0,1,0-2.48,2.48A2.48,2.48,0,0,0,310,261Z" style="fill:#4B0082;stroke:#263238;stroke-miterlimit:10"></path><path d="M313.5,267.17a2.48,2.48,0,1,0-2.47,2.48A2.47,2.47,0,0,0,313.5,267.17Z" style="fill:#fff;stroke:#263238;stroke-miterlimit:10"></path><path d="M323.9,267.17a2.48,2.48,0,1,0-2.48,2.48A2.47,2.47,0,0,0,323.9,267.17Z" style="fill:#fff;stroke:#263238;stroke-miterlimit:10"></path><path d="M319.2,261a2.48,2.48,0,1,0-2.48,2.48A2.48,2.48,0,0,0,319.2,261Z" style="fill:#4B0082;stroke:#263238;stroke-miterlimit:10"></path><path d="M221,261a2.48,2.48,0,1,1,2.47,2.48A2.47,2.47,0,0,1,221,261Z" style="fill:#4B0082;stroke:#263238;stroke-miterlimit:10"></path><path d="M217.52,267.17a2.48,2.48,0,1,1,2.48,2.48A2.47,2.47,0,0,1,217.52,267.17Z" style="fill:#fff;stroke:#263238;stroke-miterlimit:10"></path><path d="M207.12,267.17a2.48,2.48,0,1,1,2.48,2.48A2.47,2.47,0,0,1,207.12,267.17Z" style="fill:#fff;stroke:#263238;stroke-miterlimit:10"></path><path d="M211.83,261a2.48,2.48,0,1,1,2.47,2.48A2.47,2.47,0,0,1,211.83,261Z" style="fill:#4B0082;stroke:#263238;stroke-miterlimit:10"></path><rect x="220.04" y="290.64" width="91.36" height="30.93" style="fill:#919191;stroke:#263238;stroke-miterlimit:10"></rect><polygon points="294.45 319.58 234.27 319.58 239.28 256.52 289.43 256.52 294.45 319.58" style="fill:#919191;stroke:#263238;stroke-miterlimit:10"></polygon><polygon points="287.57 303.69 241.14 303.69 245.01 256.52 283.7 256.52 287.57 303.69" style="fill:#4B0082;stroke:#263238;stroke-miterlimit:10"></polygon><line x1="244.9" y1="264.02" x2="284.47" y2="264.02" style="fill:none;stroke:#263238;stroke-miterlimit:10;stroke-width:0.5px"></line><line x1="243.31" y1="273.82" x2="284.47" y2="273.82" style="fill:none;stroke:#263238;stroke-miterlimit:10;stroke-width:0.5px"></line><line x1="242.52" y1="283.61" x2="285.93" y2="283.61" style="fill:none;stroke:#263238;stroke-miterlimit:10;stroke-width:0.5px"></line><line x1="241.73" y1="293.4" x2="286.86" y2="293.4" style="fill:none;stroke:#263238;stroke-miterlimit:10;stroke-width:0.5px"></line><rect x="248.96" y="238.65" width="30.79" height="17.88" rx="3.4" style="fill:#4B0082;stroke:#263238;stroke-miterlimit:10"></rect><path d="M311.4,310.37v15.78A68,68,0,0,1,220,327.28V310.37Z" style="fill:#4B0082;stroke:#263238;stroke-miterlimit:10"></path><path d="M311.4,315.83v15.78A68,68,0,0,1,220,332.74V315.83Z" style="fill:#919191;stroke:#263238;stroke-miterlimit:10"></path><rect x="213.59" y="288.3" width="17.38" height="8.94" style="fill:#4B0082;stroke:#263238;stroke-miterlimit:10"></rect><rect x="213.59" y="293.76" width="17.38" height="8.94" style="fill:#919191;stroke:#263238;stroke-miterlimit:10"></rect><rect x="299.24" y="288.3" width="17.38" height="8.94" style="fill:#4B0082;stroke:#263238;stroke-miterlimit:10"></rect><rect x="299.24" y="293.76" width="17.38" height="8.94" style="fill:#919191;stroke:#263238;stroke-miterlimit:10"></rect></g><g id="freepik--Texts--inject-64"><path d="M82.83,106.22V76.87a12.36,12.36,0,0,1-1.14.54L80.35,78,79,78.55c-.44.18-.84.36-1.2.55V73.45l1.41-.75c.61-.32,1.26-.67,2-1.07s1.35-.8,1.95-1.21a8.86,8.86,0,0,0,1.37-1.07h6v36.87Z" style="fill:#263238"></path><path d="M97.44,106.22l8-31.08H95.39V69.35h17.48v5.24l-8,31.63Z" style="fill:#263238"></path><path d="M127,106.91a10.54,10.54,0,0,1-5.55-1.35,8.53,8.53,0,0,1-3.37-3.71,12.51,12.51,0,0,1-1.14-5.5V79.64A14.09,14.09,0,0,1,118,74a8.2,8.2,0,0,1,3.3-3.8A10.77,10.77,0,0,1,127,68.81a10.63,10.63,0,0,1,5.67,1.36,8.33,8.33,0,0,1,3.28,3.8A14.09,14.09,0,0,1,137,79.64V96.35a12.57,12.57,0,0,1-1.14,5.48,8.52,8.52,0,0,1-3.37,3.73A10.47,10.47,0,0,1,127,106.91Zm0-6.79a1.75,1.75,0,0,0,1.57-.7,3.59,3.59,0,0,0,.59-1.64,12.88,12.88,0,0,0,.12-1.62V79.82c0-.51,0-1.1-.09-1.75a3.82,3.82,0,0,0-.57-1.73,1.77,1.77,0,0,0-1.62-.75,1.75,1.75,0,0,0-1.61.75,3.82,3.82,0,0,0-.57,1.73c-.06.65-.09,1.24-.09,1.75V96.16a11.39,11.39,0,0,0,.13,1.62,3.87,3.87,0,0,0,.62,1.64A1.7,1.7,0,0,0,127,100.12Z" style="fill:#263238"></path><path d="M141.36,106.22v-5.37l8.83-13.56q1-1.5,1.89-2.91a16.88,16.88,0,0,0,1.46-2.87,8.3,8.3,0,0,0,.57-3.05,3.66,3.66,0,0,0-.64-2.37,2.13,2.13,0,0,0-1.73-.77,2.61,2.61,0,0,0-1.91.68,3.59,3.59,0,0,0-.93,1.82,11.73,11.73,0,0,0-.25,2.55v1.82h-7.38v-2a15.41,15.41,0,0,1,1-5.85,8.59,8.59,0,0,1,3.32-4,10.86,10.86,0,0,1,6-1.48c3.3,0,5.8.86,7.48,2.58a9.75,9.75,0,0,1,2.53,7.16,11.94,11.94,0,0,1-.71,4.15,19.22,19.22,0,0,1-1.86,3.71c-.78,1.2-1.6,2.45-2.48,3.75l-6.74,10.06h10.79v6Z" style="fill:#263238"></path><path d="M410.6,198.34V196.5l7.56-11.62c.55-.85,1.07-1.68,1.56-2.48a13.42,13.42,0,0,0,1.19-2.51,8.67,8.67,0,0,0,.47-3,5.93,5.93,0,0,0-.92-3.54,3.22,3.22,0,0,0-2.82-1.28,4.07,4.07,0,0,0-2.66.76,4,4,0,0,0-1.28,2.1,11.53,11.53,0,0,0-.36,3v.62h-2.53v-.69a11.88,11.88,0,0,1,.69-4.35,5.24,5.24,0,0,1,2.17-2.66,7.33,7.33,0,0,1,3.86-.9,5.91,5.91,0,0,1,4.79,1.89,7.91,7.91,0,0,1,1.59,5.25,9.74,9.74,0,0,1-.48,3.13,15.53,15.53,0,0,1-1.25,2.72c-.51.87-1,1.74-1.6,2.62l-7,10.61h9.78v2.15Z" style="fill:#263238"></path><path d="M434.66,198.68a6.5,6.5,0,0,1-4-1.07,5.89,5.89,0,0,1-2.08-3,13.35,13.35,0,0,1-.62-4.26V178.19a13,13,0,0,1,.64-4.28,5.72,5.72,0,0,1,2.11-2.9,7.95,7.95,0,0,1,7.86,0,5.76,5.76,0,0,1,2.1,2.9,13.24,13.24,0,0,1,.64,4.28V190.4a13.47,13.47,0,0,1-.63,4.3,5.74,5.74,0,0,1-2.08,2.93A6.7,6.7,0,0,1,434.66,198.68Zm0-2a3.6,3.6,0,0,0,2.52-.81,4.46,4.46,0,0,0,1.25-2.19,12,12,0,0,0,.36-3.07V178a12,12,0,0,0-.36-3.07,4.48,4.48,0,0,0-1.23-2.17,3.65,3.65,0,0,0-2.54-.8,3.56,3.56,0,0,0-2.47.8,4.28,4.28,0,0,0-1.25,2.17,11.58,11.58,0,0,0-.37,3.07V190.6a11.58,11.58,0,0,0,.37,3.07,4.33,4.33,0,0,0,1.26,2.19A3.54,3.54,0,0,0,434.66,196.67Z" style="fill:#263238"></path><path d="M452.42,198.68a6.17,6.17,0,0,1-3.75-1.05,6.1,6.1,0,0,1-2.08-3,14.93,14.93,0,0,1-.65-4.71v-11.2a14.88,14.88,0,0,1,.62-4.56,5.56,5.56,0,0,1,5.83-4.15,7.44,7.44,0,0,1,3.5.73,4.8,4.8,0,0,1,2.1,2.17,8.11,8.11,0,0,1,.71,3.59s0,.14,0,.29a2.12,2.12,0,0,1,0,.3H456.2a6.58,6.58,0,0,0-.85-3.85,3.36,3.36,0,0,0-2.89-1.15,3.83,3.83,0,0,0-2.07.57,3.72,3.72,0,0,0-1.42,1.89,10.21,10.21,0,0,0-.5,3.58v5.34a5.77,5.77,0,0,1,1.82-1.15,7.68,7.68,0,0,1,6.33.35,4.72,4.72,0,0,1,1.87,2.7,17,17,0,0,1,.55,4.79,14,14,0,0,1-.66,4.51,5.92,5.92,0,0,1-2.11,3A6.43,6.43,0,0,1,452.42,198.68Zm0-2.11a3.9,3.9,0,0,0,2.27-.61A3.64,3.64,0,0,0,456,194a10.86,10.86,0,0,0,.45-3.44,23.69,23.69,0,0,0-.26-3.81,3.9,3.9,0,0,0-1.11-2.29,4,4,0,0,0-2.69-.76,5,5,0,0,0-1.59.26,7.39,7.39,0,0,0-1.39.62,5,5,0,0,0-1,.71v4.86a13.66,13.66,0,0,0,.41,3.67,3.77,3.77,0,0,0,1.3,2.07A3.71,3.71,0,0,0,452.42,196.57Z" style="fill:#263238"></path><path d="M464.8,198.34l5.48-26.05h-8.5v-2h11.1v1.25l-5.62,26.84Z" style="fill:#263238"></path><path d="M40.69,380.82a4.64,4.64,0,0,1-2.81-.76A4.19,4.19,0,0,1,36.4,378a9.76,9.76,0,0,1-.44-3v-8.69a9.4,9.4,0,0,1,.45-3,4.09,4.09,0,0,1,1.51-2.06,4.66,4.66,0,0,1,2.77-.74,4.72,4.72,0,0,1,2.82.74A4.11,4.11,0,0,1,45,363.2a9.4,9.4,0,0,1,.45,3v8.69A9.47,9.47,0,0,1,45,378a4.12,4.12,0,0,1-1.48,2.09A4.76,4.76,0,0,1,40.69,380.82Zm0-1.43a2.52,2.52,0,0,0,1.79-.58,3.13,3.13,0,0,0,.89-1.55,8.65,8.65,0,0,0,.26-2.19v-8.95a8.57,8.57,0,0,0-.26-2.18,3,3,0,0,0-.88-1.54,3.06,3.06,0,0,0-3.56,0,3.09,3.09,0,0,0-.89,1.54,8.57,8.57,0,0,0-.26,2.18v8.95a8.65,8.65,0,0,0,.26,2.19,3.22,3.22,0,0,0,.9,1.55A2.5,2.5,0,0,0,40.69,379.39Z" style="fill:#263238"></path><path d="M53.45,380.82a4.65,4.65,0,0,1-2.82-.76,4.19,4.19,0,0,1-1.48-2.1,9.76,9.76,0,0,1-.44-3v-8.69a9.12,9.12,0,0,1,.46-3,4,4,0,0,1,1.5-2.06,5.65,5.65,0,0,1,5.59,0,4.06,4.06,0,0,1,1.49,2.06,9.39,9.39,0,0,1,.46,3v8.69a9.46,9.46,0,0,1-.45,3.05,4.06,4.06,0,0,1-1.48,2.09A4.73,4.73,0,0,1,53.45,380.82Zm0-1.43a2.51,2.51,0,0,0,1.78-.58,3.13,3.13,0,0,0,.89-1.55,8.65,8.65,0,0,0,.26-2.19v-8.95a8.57,8.57,0,0,0-.26-2.18,3.06,3.06,0,0,0-.87-1.54,3.08,3.08,0,0,0-3.57,0,3.09,3.09,0,0,0-.89,1.54,8.59,8.59,0,0,0-.25,2.18v8.95a8.67,8.67,0,0,0,.25,2.19,3.22,3.22,0,0,0,.9,1.55A2.53,2.53,0,0,0,53.45,379.39Z" style="fill:#263238"></path><path d="M62.38,380.57l3.89-18.52h-6V360.6h7.89v.88l-4,19.09Z" style="fill:#263238"></path><path d="M75.57,380.82a4.85,4.85,0,0,1-2.75-.69,3.91,3.91,0,0,1-1.49-2,8.57,8.57,0,0,1-.47-2.95,7.88,7.88,0,0,1,.26-2.18,4.38,4.38,0,0,1,.68-1.44,3.86,3.86,0,0,1,.93-.92,11,11,0,0,1,1-.59,4.09,4.09,0,0,1-2-1.64,5.49,5.49,0,0,1-.74-3.05,7.21,7.21,0,0,1,.44-2.59A3.7,3.7,0,0,1,72.94,361a4.81,4.81,0,0,1,2.63-.64,4.63,4.63,0,0,1,2.6.65,3.77,3.77,0,0,1,1.42,1.79,7.07,7.07,0,0,1,.45,2.61,5.47,5.47,0,0,1-.73,3,4.28,4.28,0,0,1-1.94,1.63,9.65,9.65,0,0,1,1,.59,3.65,3.65,0,0,1,.92.92A4.83,4.83,0,0,1,80,373a7.49,7.49,0,0,1,.27,2.18,8.57,8.57,0,0,1-.47,2.95,3.91,3.91,0,0,1-1.49,2A4.82,4.82,0,0,1,75.57,380.82Zm0-1.43a2.71,2.71,0,0,0,1.63-.46,2.65,2.65,0,0,0,1-1.38,7.27,7.27,0,0,0,.32-2.33,7.4,7.4,0,0,0-.28-2.16,3.29,3.29,0,0,0-.92-1.49,2.73,2.73,0,0,0-1.71-.64,2.89,2.89,0,0,0-1.74.64,3.24,3.24,0,0,0-.94,1.49,7.75,7.75,0,0,0-.28,2.16,7,7,0,0,0,.33,2.33,2.57,2.57,0,0,0,2.63,1.84Zm0-10.11a2.57,2.57,0,0,0,1.62-.57,2.9,2.9,0,0,0,.82-1.38,6.93,6.93,0,0,0,.25-1.95,4.5,4.5,0,0,0-.64-2.63,2.35,2.35,0,0,0-2.05-.9,2.39,2.39,0,0,0-2.08.9,4.42,4.42,0,0,0-.66,2.63,6.93,6.93,0,0,0,.25,1.95,2.8,2.8,0,0,0,.85,1.38A2.65,2.65,0,0,0,75.57,369.28Z" style="fill:#263238"></path><path d="M281.6,436.73V392a3.94,3.94,0,0,1-1.51,1.13,18.3,18.3,0,0,1-2.48,1l-2.45.78c-.74.23-1.21.37-1.42.41v-3.71c.59-.17,1.28-.41,2.08-.72a15.51,15.51,0,0,0,2.39-1.23,22.62,22.62,0,0,0,2.33-1.7,12.37,12.37,0,0,0,2-2.14h3.71v51Z" style="fill:#263238"></path><path d="M309.28,437.3a12.19,12.19,0,0,1-6.57-1.57,9,9,0,0,1-3.62-4.66,21.89,21.89,0,0,1-1.13-7.48h4.59a21,21,0,0,0,.6,5.34,6.41,6.41,0,0,0,2.14,3.5,6.56,6.56,0,0,0,4.18,1.22,5.93,5.93,0,0,0,4.4-1.51,8.29,8.29,0,0,0,2.08-4.4,37.64,37.64,0,0,0,.56-7.11,33.24,33.24,0,0,0-.66-7.42,7,7,0,0,0-2.2-4,6.48,6.48,0,0,0-4.12-1.22,6.69,6.69,0,0,0-3.65,1.07,9.34,9.34,0,0,0-2.95,3.14h-3.84V385.78h19.82l-.07,4.34H303.18l-.25,17.68a9.63,9.63,0,0,1,3.05-2.39,10.15,10.15,0,0,1,4.75-1,9.26,9.26,0,0,1,6.07,1.89,10.49,10.49,0,0,1,3.3,5.38,30.54,30.54,0,0,1,1,8.39,38.4,38.4,0,0,1-.63,7.36,15.24,15.24,0,0,1-2.05,5.41,9.32,9.32,0,0,1-3.64,3.34A12.18,12.18,0,0,1,309.28,437.3Z" style="fill:#263238"></path><path d="M331.49,436.73l9.93-47.24H326v-3.71h20.13v2.27L336,436.73Z" style="fill:#263238"></path><path d="M365.14,437.36a12.41,12.41,0,0,1-7-1.76,10,10,0,0,1-3.8-5,21.57,21.57,0,0,1-1.2-7.52,19.92,19.92,0,0,1,.66-5.56,11.77,11.77,0,0,1,1.73-3.68,9.6,9.6,0,0,1,2.4-2.33,23.45,23.45,0,0,1,2.57-1.51,10.6,10.6,0,0,1-5-4.18,14.23,14.23,0,0,1-1.88-7.77,17.93,17.93,0,0,1,1.13-6.61,9.24,9.24,0,0,1,3.68-4.53,12.24,12.24,0,0,1,6.7-1.63,11.69,11.69,0,0,1,6.64,1.67,9.51,9.51,0,0,1,3.61,4.56,18.05,18.05,0,0,1,1.13,6.66,13.85,13.85,0,0,1-1.85,7.68,11,11,0,0,1-4.94,4.15,21.52,21.52,0,0,1,2.55,1.51,10,10,0,0,1,2.36,2.33,12.24,12.24,0,0,1,1.76,3.68,19.1,19.1,0,0,1,.69,5.56,21.82,21.82,0,0,1-1.19,7.52,10,10,0,0,1-3.81,5A12.27,12.27,0,0,1,365.14,437.36Zm0-3.65a6.35,6.35,0,0,0,6.6-4.68,18.28,18.28,0,0,0,.82-5.95,18.9,18.9,0,0,0-.72-5.5,8.29,8.29,0,0,0-2.33-3.81,7,7,0,0,0-4.37-1.63,7.31,7.31,0,0,0-4.44,1.63,8.06,8.06,0,0,0-2.39,3.81,18.9,18.9,0,0,0-.72,5.5,17.68,17.68,0,0,0,.85,5.95,6.51,6.51,0,0,0,6.7,4.68Zm0-25.79a6.44,6.44,0,0,0,4.12-1.44,7.33,7.33,0,0,0,2.11-3.53,18,18,0,0,0,.63-5q0-4.39-1.64-6.69t-5.22-2.3c-2.43,0-4.21.77-5.32,2.3s-1.66,3.76-1.66,6.69a18,18,0,0,0,.63,5,7,7,0,0,0,2.17,3.53A6.69,6.69,0,0,0,365.14,407.92Z" style="fill:#263238"></path></g></svg>
